<mxfile modified="2024-02-28T11:35:31.214Z" host="Electron" agent="Mozilla/5.0 (Windows NT 10.0; Win64; x64) AppleWebKit/537.36 (KHTML, like Gecko) draw.io/23.1.5 Chrome/120.0.6099.109 Electron/28.1.0 Safari/537.36" etag="6Hh4Yn40kMIhOHK-dD_Z" version="23.1.5" type="device">
  <diagram id="eIo0H9kK7ql945uVP1NC" name="Page-1">
    <mxGraphModel dx="1235" dy="1900" grid="1" gridSize="10" guides="1" tooltips="1" connect="1" arrows="1" fold="1" page="1" pageScale="1" pageWidth="827" pageHeight="1169" math="0" shadow="0">
      <root>
        <mxCell id="0" />
        <mxCell id="1" parent="0" />
        <mxCell id="DDweSEcS681Xz69khZ6t-5" value="" style="group;strokeColor=default;" vertex="1" connectable="0" parent="1">
          <mxGeometry x="560" y="40" width="240" height="240" as="geometry" />
        </mxCell>
        <mxCell id="DDweSEcS681Xz69khZ6t-47" value="&lt;b&gt;&lt;font style=&quot;font-size: 16px;&quot;&gt;Ethereum Network&lt;/font&gt;&lt;/b&gt;" style="text;html=1;align=center;verticalAlign=middle;resizable=0;points=[];autosize=1;strokeColor=none;fillColor=none;" vertex="1" parent="DDweSEcS681Xz69khZ6t-5">
          <mxGeometry x="40" y="6.432191331563973e-15" width="160" height="30" as="geometry" />
        </mxCell>
        <mxCell id="DDweSEcS681Xz69khZ6t-48" value="" style="group" vertex="1" connectable="0" parent="DDweSEcS681Xz69khZ6t-5">
          <mxGeometry x="80" y="80" width="80" height="144.84" as="geometry" />
        </mxCell>
        <mxCell id="DDweSEcS681Xz69khZ6t-2" value="HandwrittenFonts&lt;br&gt;Smart Contract" style="text;html=1;align=center;verticalAlign=middle;resizable=0;points=[];autosize=1;strokeColor=none;fillColor=none;" vertex="1" parent="DDweSEcS681Xz69khZ6t-48">
          <mxGeometry x="-20" y="80.00455126510064" width="120" height="40" as="geometry" />
        </mxCell>
        <mxCell id="DDweSEcS681Xz69khZ6t-1" value="" style="image;aspect=fixed;perimeter=ellipsePerimeter;html=1;align=center;shadow=0;dashed=0;fontColor=#4277BB;labelBackgroundColor=default;fontSize=12;spacingTop=3;image=img/lib/ibm/blockchain/smart_contract.svg;strokeColor=default;" vertex="1" parent="DDweSEcS681Xz69khZ6t-48">
          <mxGeometry width="80" height="80" as="geometry" />
        </mxCell>
        <mxCell id="DDweSEcS681Xz69khZ6t-20" value="" style="group" vertex="1" connectable="0" parent="1">
          <mxGeometry x="400" y="119.42" width="80" height="120" as="geometry" />
        </mxCell>
        <mxCell id="DDweSEcS681Xz69khZ6t-18" value="" style="image;aspect=fixed;perimeter=ellipsePerimeter;html=1;align=center;shadow=0;dashed=0;fontColor=#4277BB;labelBackgroundColor=default;fontSize=12;spacingTop=3;image=img/lib/ibm/blockchain/wallet.svg;" vertex="1" parent="DDweSEcS681Xz69khZ6t-20">
          <mxGeometry width="80" height="80" as="geometry" />
        </mxCell>
        <mxCell id="DDweSEcS681Xz69khZ6t-19" value="MetaMask" style="text;html=1;align=center;verticalAlign=middle;resizable=0;points=[];autosize=1;strokeColor=none;fillColor=none;" vertex="1" parent="DDweSEcS681Xz69khZ6t-20">
          <mxGeometry x="0.0033333333333356308" y="80" width="80" height="30" as="geometry" />
        </mxCell>
        <mxCell id="DDweSEcS681Xz69khZ6t-21" value="" style="group" vertex="1" connectable="0" parent="1">
          <mxGeometry x="70" y="118.84" width="80" height="110.58" as="geometry" />
        </mxCell>
        <mxCell id="DDweSEcS681Xz69khZ6t-6" value="" style="image;aspect=fixed;perimeter=ellipsePerimeter;html=1;align=center;shadow=0;dashed=0;fontColor=#4277BB;labelBackgroundColor=default;fontSize=12;spacingTop=3;image=img/lib/ibm/users/browser.svg;" vertex="1" parent="DDweSEcS681Xz69khZ6t-21">
          <mxGeometry width="80" height="80" as="geometry" />
        </mxCell>
        <mxCell id="DDweSEcS681Xz69khZ6t-7" value="Client Browser" style="text;html=1;align=center;verticalAlign=middle;resizable=0;points=[];autosize=1;strokeColor=none;fillColor=none;" vertex="1" parent="DDweSEcS681Xz69khZ6t-21">
          <mxGeometry x="-10.003333333333336" y="79.99939659531434" width="100" height="30" as="geometry" />
        </mxCell>
        <mxCell id="DDweSEcS681Xz69khZ6t-31" value="" style="group" vertex="1" connectable="0" parent="1">
          <mxGeometry x="240" y="119.42" width="80" height="110.00000000000001" as="geometry" />
        </mxCell>
        <mxCell id="DDweSEcS681Xz69khZ6t-29" value="web3.js" style="text;html=1;align=center;verticalAlign=middle;resizable=0;points=[];autosize=1;strokeColor=none;fillColor=none;" vertex="1" parent="DDweSEcS681Xz69khZ6t-31">
          <mxGeometry x="10" y="80.00000000000001" width="60" height="30" as="geometry" />
        </mxCell>
        <mxCell id="DDweSEcS681Xz69khZ6t-30" value="" style="image;aspect=fixed;perimeter=ellipsePerimeter;html=1;align=center;shadow=0;dashed=0;fontColor=#4277BB;labelBackgroundColor=default;fontSize=12;spacingTop=3;image=img/lib/ibm/applications/application_logic.svg;" vertex="1" parent="DDweSEcS681Xz69khZ6t-31">
          <mxGeometry width="80" height="80" as="geometry" />
        </mxCell>
        <mxCell id="DDweSEcS681Xz69khZ6t-41" value="" style="group" vertex="1" connectable="0" parent="1">
          <mxGeometry x="240" y="400" width="80" height="110.00000000000001" as="geometry" />
        </mxCell>
        <mxCell id="DDweSEcS681Xz69khZ6t-42" value="Helia.js" style="text;html=1;align=center;verticalAlign=middle;resizable=0;points=[];autosize=1;strokeColor=none;fillColor=none;" vertex="1" parent="DDweSEcS681Xz69khZ6t-41">
          <mxGeometry x="10" y="80.00000000000001" width="60" height="30" as="geometry" />
        </mxCell>
        <mxCell id="DDweSEcS681Xz69khZ6t-43" value="" style="image;aspect=fixed;perimeter=ellipsePerimeter;html=1;align=center;shadow=0;dashed=0;fontColor=#4277BB;labelBackgroundColor=default;fontSize=12;spacingTop=3;image=img/lib/ibm/applications/application_logic.svg;" vertex="1" parent="DDweSEcS681Xz69khZ6t-41">
          <mxGeometry width="80" height="80" as="geometry" />
        </mxCell>
        <mxCell id="DDweSEcS681Xz69khZ6t-49" value="" style="group;strokeColor=default;" vertex="1" connectable="0" parent="1">
          <mxGeometry x="560" y="320" width="240" height="240" as="geometry" />
        </mxCell>
        <mxCell id="DDweSEcS681Xz69khZ6t-50" value="&lt;b&gt;&lt;font style=&quot;font-size: 16px;&quot;&gt;IPFS Network&lt;/font&gt;&lt;/b&gt;" style="text;html=1;align=center;verticalAlign=middle;resizable=0;points=[];autosize=1;strokeColor=none;fillColor=none;" vertex="1" parent="DDweSEcS681Xz69khZ6t-49">
          <mxGeometry x="55" y="6.432191331563973e-15" width="130" height="30" as="geometry" />
        </mxCell>
        <mxCell id="DDweSEcS681Xz69khZ6t-51" value="" style="group" vertex="1" connectable="0" parent="DDweSEcS681Xz69khZ6t-49">
          <mxGeometry x="80" y="80" width="80" height="144.84" as="geometry" />
        </mxCell>
        <mxCell id="DDweSEcS681Xz69khZ6t-52" value="IPFS" style="text;html=1;align=center;verticalAlign=middle;resizable=0;points=[];autosize=1;strokeColor=none;fillColor=none;" vertex="1" parent="DDweSEcS681Xz69khZ6t-51">
          <mxGeometry x="15" y="85.00455126510064" width="50" height="30" as="geometry" />
        </mxCell>
        <mxCell id="DDweSEcS681Xz69khZ6t-54" value="" style="image;aspect=fixed;perimeter=ellipsePerimeter;html=1;align=center;shadow=0;dashed=0;fontColor=#4277BB;labelBackgroundColor=default;fontSize=12;spacingTop=3;image=img/lib/ibm/data/file_repository.svg;" vertex="1" parent="DDweSEcS681Xz69khZ6t-51">
          <mxGeometry width="80" height="80" as="geometry" />
        </mxCell>
        <mxCell id="DDweSEcS681Xz69khZ6t-55" style="edgeStyle=orthogonalEdgeStyle;rounded=0;orthogonalLoop=1;jettySize=auto;html=1;" edge="1" parent="1" source="DDweSEcS681Xz69khZ6t-6" target="DDweSEcS681Xz69khZ6t-30">
          <mxGeometry relative="1" as="geometry" />
        </mxCell>
        <mxCell id="DDweSEcS681Xz69khZ6t-56" style="edgeStyle=orthogonalEdgeStyle;rounded=0;orthogonalLoop=1;jettySize=auto;html=1;" edge="1" parent="1" source="DDweSEcS681Xz69khZ6t-30" target="DDweSEcS681Xz69khZ6t-18">
          <mxGeometry relative="1" as="geometry" />
        </mxCell>
        <mxCell id="DDweSEcS681Xz69khZ6t-59" value="" style="curved=1;endArrow=classic;html=1;rounded=0;entryX=0;entryY=0.25;entryDx=0;entryDy=0;exitX=1;exitY=0.75;exitDx=0;exitDy=0;" edge="1" parent="1" source="DDweSEcS681Xz69khZ6t-6" target="DDweSEcS681Xz69khZ6t-43">
          <mxGeometry width="50" height="50" relative="1" as="geometry">
            <mxPoint x="170" y="320" as="sourcePoint" />
            <mxPoint x="220" y="270" as="targetPoint" />
            <Array as="points">
              <mxPoint x="170" y="220" />
              <mxPoint x="160" y="260" />
            </Array>
          </mxGeometry>
        </mxCell>
        <mxCell id="DDweSEcS681Xz69khZ6t-60" style="edgeStyle=orthogonalEdgeStyle;rounded=0;orthogonalLoop=1;jettySize=auto;html=1;" edge="1" parent="1" source="DDweSEcS681Xz69khZ6t-43" target="DDweSEcS681Xz69khZ6t-54">
          <mxGeometry relative="1" as="geometry" />
        </mxCell>
        <mxCell id="DDweSEcS681Xz69khZ6t-57" style="edgeStyle=orthogonalEdgeStyle;rounded=0;orthogonalLoop=1;jettySize=auto;html=1;entryX=0;entryY=0.5;entryDx=0;entryDy=0;" edge="1" parent="1" source="DDweSEcS681Xz69khZ6t-18" target="DDweSEcS681Xz69khZ6t-1">
          <mxGeometry relative="1" as="geometry" />
        </mxCell>
        <mxCell id="DDweSEcS681Xz69khZ6t-63" style="edgeStyle=orthogonalEdgeStyle;rounded=0;orthogonalLoop=1;jettySize=auto;html=1;entryX=1;entryY=0.5;entryDx=0;entryDy=0;" edge="1" parent="1" source="DDweSEcS681Xz69khZ6t-1" target="DDweSEcS681Xz69khZ6t-18">
          <mxGeometry relative="1" as="geometry" />
        </mxCell>
        <mxCell id="DDweSEcS681Xz69khZ6t-64" style="edgeStyle=orthogonalEdgeStyle;rounded=0;orthogonalLoop=1;jettySize=auto;html=1;entryX=1;entryY=0.5;entryDx=0;entryDy=0;" edge="1" parent="1" source="DDweSEcS681Xz69khZ6t-18" target="DDweSEcS681Xz69khZ6t-30">
          <mxGeometry relative="1" as="geometry" />
        </mxCell>
        <mxCell id="DDweSEcS681Xz69khZ6t-65" style="edgeStyle=orthogonalEdgeStyle;rounded=0;orthogonalLoop=1;jettySize=auto;html=1;entryX=1;entryY=0.5;entryDx=0;entryDy=0;" edge="1" parent="1" source="DDweSEcS681Xz69khZ6t-30" target="DDweSEcS681Xz69khZ6t-6">
          <mxGeometry relative="1" as="geometry" />
        </mxCell>
        <mxCell id="DDweSEcS681Xz69khZ6t-67" value="" style="curved=1;endArrow=classic;html=1;rounded=0;entryX=0;entryY=0.25;entryDx=0;entryDy=0;exitX=1;exitY=0.75;exitDx=0;exitDy=0;" edge="1" parent="1">
          <mxGeometry width="50" height="50" relative="1" as="geometry">
            <mxPoint x="240" y="415" as="sourcePoint" />
            <mxPoint x="142" y="170" as="targetPoint" />
            <Array as="points">
              <mxPoint x="160" y="250" />
              <mxPoint x="166" y="213" />
            </Array>
          </mxGeometry>
        </mxCell>
        <mxCell id="DDweSEcS681Xz69khZ6t-68" style="edgeStyle=orthogonalEdgeStyle;rounded=0;orthogonalLoop=1;jettySize=auto;html=1;entryX=1;entryY=0.5;entryDx=0;entryDy=0;" edge="1" parent="1" source="DDweSEcS681Xz69khZ6t-54" target="DDweSEcS681Xz69khZ6t-43">
          <mxGeometry relative="1" as="geometry" />
        </mxCell>
        <mxCell id="DDweSEcS681Xz69khZ6t-71" value="" style="group" vertex="1" connectable="0" parent="1">
          <mxGeometry x="190" y="-190" width="82.19" height="120" as="geometry" />
        </mxCell>
        <mxCell id="DDweSEcS681Xz69khZ6t-69" value="" style="image;aspect=fixed;perimeter=ellipsePerimeter;html=1;align=center;shadow=0;dashed=0;fontColor=#4277BB;labelBackgroundColor=default;fontSize=12;spacingTop=3;image=img/lib/ibm/applications/microservice.svg;" vertex="1" parent="DDweSEcS681Xz69khZ6t-71">
          <mxGeometry width="82.19" height="60" as="geometry" />
        </mxCell>
        <mxCell id="DDweSEcS681Xz69khZ6t-70" value="Font Generation Service" style="text;html=1;align=center;verticalAlign=middle;resizable=0;points=[];autosize=1;strokeColor=none;fillColor=none;" vertex="1" parent="DDweSEcS681Xz69khZ6t-71">
          <mxGeometry x="-33.9" y="60" width="150" height="30" as="geometry" />
        </mxCell>
      </root>
    </mxGraphModel>
  </diagram>
</mxfile>
